<svg width="269" height="269" viewBox="0 0 269 269" fill="none" xmlns="http://www.w3.org/2000/svg">
<path d="M242.247 199.403C248.697 187.346 252.108 173.898 252.186 160.225C252.264 146.552 249.006 133.066 242.694 120.936C236.383 108.806 227.208 98.3991 215.965 90.6163C204.723 82.8336 191.752 77.9102 178.177 76.273C173.717 65.8376 167.19 56.4133 158.99 48.5681C150.79 40.7228 141.086 34.6192 130.464 30.6249C119.842 26.6306 108.52 24.8285 97.1829 25.3272C85.8453 25.8258 74.7261 28.6149 64.4954 33.5262C54.2647 38.4376 45.1344 45.3696 37.6548 53.9045C30.1751 62.4393 24.501 72.4003 20.9744 83.1869C17.4479 93.9736 16.1418 105.363 17.1351 116.668C18.1284 127.973 21.4003 138.959 26.7538 148.966L20.2552 171.715C19.5341 174.238 19.5007 176.907 20.1584 179.447C20.8162 181.986 22.1412 184.304 23.9961 186.159C25.8511 188.015 28.1684 189.34 30.708 189.998C33.2476 190.657 35.917 190.624 38.4397 189.903L61.1915 183.403C70.3983 188.331 80.4443 191.497 90.813 192.738C95.3969 203.461 102.161 213.113 110.675 221.082C119.189 229.051 129.267 235.162 140.27 239.027C151.272 242.893 162.958 244.427 174.585 243.534C186.213 242.641 197.527 239.34 207.81 233.84L230.561 240.341C233.084 241.061 235.753 241.094 238.293 240.436C240.832 239.778 243.149 238.452 245.004 236.597C246.859 234.742 248.184 232.425 248.842 229.885C249.5 227.346 249.467 224.677 248.747 222.154L242.247 199.403ZM225.973 194.036C225.388 195.021 225.01 196.115 224.862 197.251C224.715 198.387 224.801 199.541 225.115 200.642L231.542 223.136L209.049 216.709C207.948 216.395 206.794 216.309 205.658 216.456C204.522 216.604 203.428 216.982 202.444 217.567C194.75 222.127 186.225 225.107 177.367 226.333C168.508 227.56 159.494 227.008 150.851 224.71C142.208 222.412 134.11 218.415 127.031 212.951C119.951 207.487 114.031 200.667 109.618 192.888C121.132 191.697 132.276 188.137 142.349 182.433C152.422 176.728 161.207 169.003 168.151 159.741C175.096 150.479 180.05 139.881 182.703 128.613C185.356 117.345 185.65 105.65 183.567 94.2633C193.838 96.6894 203.394 101.498 211.463 108.3C219.531 115.102 225.887 123.707 230.015 133.42C234.143 143.133 235.928 153.68 235.226 164.21C234.524 174.74 231.354 184.957 225.973 194.036V194.036Z" fill="white"/>
</svg>
